<svg xmlns="http://www.w3.org/2000/svg" width="15.574" height="12.657" viewBox="0 0 15.574 12.657"><path d="M1234.967,68.608a6.376,6.376,0,0,1-1.835.5,3.206,3.206,0,0,0,1.405-1.767,6.4,6.4,0,0,1-2.029.775,3.2,3.2,0,0,0-5.445,2.915,9.071,9.071,0,0,1-6.586-3.339,3.2,3.2,0,0,0,.989,4.266,3.181,3.181,0,0,1-1.447-.4c0,.013,0,.027,0,.041a3.2,3.2,0,0,0,2.563,3.133,3.2,3.2,0,0,1-1.443.055,3.2,3.2,0,0,0,2.985,2.219,6.449,6.449,0,0,1-4.73,1.323,9.087,9.087,0,0,0,13.989-7.655q0-.208-.01-.413a6.492,6.492,0,0,0,1.595-1.654Zm0,0" transform="translate(-1219.393 -67.11)" fill="#f1667f"/></svg>