<svg xmlns="http://www.w3.org/2000/svg" width="15" height="23.406" viewBox="0 0 15 23.406"><path d="M14.768,2.647c.139,2.879.232,6.084.232,9.335,0,3.065-.046,6.084-.186,8.777a2.8,2.8,0,0,1-2.786,2.647H2.972A2.8,2.8,0,0,1,.186,20.759C.046,18.065,0,15.047,0,11.982,0,8.731.093,5.526.232,2.647A2.726,2.726,0,0,1,2.972,0h9.056A2.757,2.757,0,0,1,14.768,2.647Zm-.7,9.335c0-3.2-.093-6.455-.232-9.288A1.835,1.835,0,0,0,12.028.929H2.972A1.835,1.835,0,0,0,1.161,2.694C1.022,5.526.929,8.777.929,11.982c0,3.019.046,6.037.186,8.731a1.877,1.877,0,0,0,1.858,1.765h9.056a1.877,1.877,0,0,0,1.858-1.765C14.025,18.019,14.071,15,14.071,11.982Z" fill="#f1667f"/><path d="M145.743,437a.744.744,0,1,1,0,1.486.743.743,0,0,1,0-1.486Z" transform="translate(-138.266 -416.706)" fill="#f1667f" fill-rule="evenodd"/><path d="M122.464,41.929a.439.439,0,0,1-.464-.464.465.465,0,0,1,.464-.464h2.74a.465.465,0,0,1,.464.464.439.439,0,0,1-.464.464Z" transform="translate(-116.334 -39.096)" fill="#f1667f"/><path d="M34,83H45.8V98.7H34Z" transform="translate(-32.421 -79.145)" fill="#f1667f" fill-rule="evenodd"/><path d="M220.464,41a.465.465,0,0,1,.464.464.439.439,0,0,1-.464.464.465.465,0,0,1-.464-.464A.5.5,0,0,1,220.464,41Z" transform="translate(-209.783 -39.096)" fill="#f1667f" fill-rule="evenodd"/></svg>