<svg xmlns="http://www.w3.org/2000/svg" width="45.241" height="40.76" viewBox="0 0 45.241 40.76"><path d="M13.441,86.692,8.2,54.783v-.546L7.868,53.8a7.368,7.368,0,0,1,2.4-5.628,7.441,7.441,0,0,1,5.136-2.24,6.794,6.794,0,0,1,4.917,2.186,7.116,7.116,0,0,1,2.4,5.682v2.4L17.484,86.692Zm30.488,0-5.464-33.4-.109-.439a5.976,5.976,0,0,1,2.131-5,7.731,7.731,0,0,1,5.191-1.923,7.868,7.868,0,0,1,5.081,1.923,7.017,7.017,0,0,1,2.349,5.768v.989L47.973,86.692Z" transform="translate(-7.868 -45.931)" fill="#fff"/></svg>