<svg xmlns="http://www.w3.org/2000/svg" width="16.759" height="22.875" viewBox="0 0 16.759 22.875"><g transform="translate(0 0)"><path d="M27.986,67.6c-.289.506-.6.987-.915,1.445C29.093,69.5,30.3,70.3,30.3,70.9c0,.891-2.673,2.239-6.718,2.239S16.861,71.79,16.861,70.9c0-.6,1.2-1.372,3.227-1.854-.313-.457-.626-.939-.915-1.445-2.312.6-3.973,1.686-3.973,3.3,0,2.552,4.214,3.9,8.379,3.9s8.379-1.348,8.379-3.9C31.959,69.285,30.3,68.2,27.986,67.6Z" transform="translate(-15.2 -51.925)" fill="#f1667f"/><path d="M30.02,20.8c1.71-2.528,5.8-8.861,5.8-11.726a6.561,6.561,0,1,0-13.123,0c0,2.865,4.117,9.2,5.827,11.726A.924.924,0,0,0,30.02,20.8Zm-3.8-11.726a3.058,3.058,0,1,1,3.058,3.034A3.062,3.062,0,0,1,26.215,9.073Z" transform="translate(-20.894 -2.5)" fill="#f1667f"/></g></svg>