<svg xmlns="http://www.w3.org/2000/svg" width="12.83" height="16.492" viewBox="0 0 12.83 16.492"><path d="M1495.929,84.3a4.492,4.492,0,0,1-2.213-1.054c-.432,2.27-.962,4.447-2.528,5.584-.484-3.432.71-6.009,1.264-8.745-.945-1.591.114-4.793,2.107-4,2.453.97-2.124,5.915.948,6.533,3.208.645,4.517-5.566,2.528-7.586-2.874-2.917-8.366-.067-7.691,4.109.164,1.021,1.219,1.331.421,2.739-1.839-.408-2.388-1.858-2.317-3.793a6.191,6.191,0,0,1,5.584-5.69c3.464-.388,6.715,1.272,7.164,4.531.505,3.678-1.564,7.661-5.268,7.375Zm0,0" transform="translate(-1488.442 -72.341)" fill="#f1667f"/></svg>